Patient4_TMGait_0pt5_01_right_35_GRF.mot
version=1
nRows=58
nColumns=19
inDegrees=no
endheader
time	F1x	F1y	F1z	M1x	M1y	M1z	F2x	F2y	F2z	M2x	M2y	M2z	EC1x	EC1y	EC1z	EC2x	EC2y	EC2z
45.93	23.7112	831.6504	73.1745	-300.5032	-53.6402	694.6784	-1.0757	-2.4979	-13.4662	2.4919	16.4726	-6.3618	-0.0592	0.0182	-0.0073	-0.0462	0.0165	0.9585
45.9438	17.5376	818.0117	73.0513	-295.2798	-54.2653	679.5259	-0.85048	-1.1673	-9.3189	1.9259	11.405	-3.7782	-0.0592	0.0182	-0.0073	-0.0462	0.0165	0.9585
45.9576	12.363	801.6981	72.3914	-289.0735	-54.2128	662.1919	-0.62714	-0.024464	-5.7186	1.4274	6.9956	-1.6007	-0.0592	0.0182	-0.0073	-0.0462	0.0165	0.9585
45.9714	8.5509	783.462	71.2282	-282.1809	-53.4554	643.4447	-0.43698	0.86658	-2.9157	1.0407	3.5598	0.058512	-0.0592	0.0182	-0.0073	-0.0462	0.0165	0.9585
45.9851	6.1675	764.3315	69.6937	-274.9943	-52.0971	624.1465	-0.30769	1.514	-0.942	0.77432	1.1456	1.2268	-0.0592	0.0182	-0.0073	-0.0462	0.0165	0.9585
45.9989	5.112	745.5567	67.9656	-267.9777	-50.3058	605.2532	-0.23528	1.944	0.30888	0.61233	-0.37068	1.9646	-0.0592	0.0182	-0.0073	-0.0462	0.0165	0.9585
46.0127	5.2014	728.4973	66.2108	-261.6279	-48.2524	587.7662	-0.22248	2.198	0.99214	0.52946	-1.1783	2.3679	-0.0592	0.0182	-0.0073	-0.0462	0.0165	0.9585
46.0265	6.247	714.4355	64.5571	-256.4103	-46.0694	572.6004	-0.2684	2.2953	1.2761	0.49132	-1.485	2.5111	-0.0592	0.0182	-0.0073	-0.0462	0.0165	0.9585
46.0403	8.0584	704.4056	63.1108	-252.6973	-43.8711	560.478	-0.36152	2.2277	1.302	0.45813	-1.4696	2.4315	-0.0592	0.0182	-0.0073	-0.0462	0.0165	0.9585
46.0541	10.4837	699.0724	61.9332	-250.7252	-41.7254	551.8311	-0.49737	1.9723	1.1812	0.39047	-1.2708	2.1516	-0.0592	0.0182	-0.0073	-0.0462	0.0165	0.9585
46.0679	13.4007	698.678	61.0746	-250.5723	-39.6886	546.7898	-0.65516	1.4753	0.9915	0.24598	-0.99085	1.6456	-0.0592	0.0182	-0.0073	-0.0462	0.0165	0.9585
46.0816	16.715	703.02	60.5437	-252.1524	-37.7826	545.1745	-0.81479	0.6711	0.78977	-0.016336	-0.70463	0.87086	-0.0592	0.0182	-0.0073	-0.0462	0.0165	0.9585
46.0954	20.3447	711.4548	60.3544	-255.2162	-36.0388	546.4989	-0.94012	-0.50454	0.60907	-0.42975	-0.46551	-0.23082	-0.0592	0.0182	-0.0073	-0.0462	0.0165	0.9585
46.1092	24.1994	722.9894	60.5072	-259.3834	-34.4837	550.0495	-0.97682	-2.0863	0.4702	-1.0103	-0.31585	-1.7043	-0.0592	0.0182	-0.0073	-0.0462	0.0165	0.9585
46.123	28.199	736.3799	60.9895	-264.1834	-33.1312	554.944	-0.86229	-4.0111	0.38462	-1.7354	-0.29043	-3.4985	-0.0592	0.0182	-0.0073	-0.0462	0.0165	0.9585
46.1368	32.2598	750.2466	61.7694	-269.0992	-31.9821	560.2274	-0.49837	-6.089	0.36315	-2.5293	-0.43134	-5.4483	-0.0592	0.0182	-0.0073	-0.0462	0.0165	0.9585
46.1506	36.288	763.1663	62.7809	-273.603	-31.0161	564.9354	0.22222	-7.9079	0.40867	-3.2303	-0.77514	-7.1728	-0.0592	0.0182	-0.0073	-0.0462	0.0165	0.9585
46.1644	40.1918	773.7425	63.943	-277.1829	-30.2067	568.1224	1.416	-8.7682	0.52961	-3.5658	-1.3623	-8.0279	-0.0592	0.0182	-0.0073	-0.0462	0.0165	0.9585
46.1781	43.8896	780.7795	65.1461	-279.4039	-29.5053	568.998	3.1787	-7.6161	0.72801	-3.128	-2.2208	-7.0447	-0.0592	0.0182	-0.0073	-0.0462	0.0165	0.9585
46.1919	47.3335	783.4	66.2739	-279.9516	-28.8501	566.9809	5.5264	-3.0225	1.0033	-1.3644	-3.3472	-2.8952	-0.0592	0.0182	-0.0073	-0.0462	0.0165	0.9585
46.2057	50.5012	781.1065	67.1939	-278.658	-28.1607	561.7523	8.3488	6.7674	1.3431	2.4037	-4.6785	6.0663	-0.0592	0.0182	-0.0073	-0.0462	0.0165	0.9585
46.2195	53.3711	773.688	67.7633	-275.4725	-27.3515	553.1825	11.3088	23.6502	1.7142	8.9099	-6.0517	21.6316	-0.0592	0.0182	-0.0073	-0.0462	0.0165	0.9585
46.2333	55.9339	761.055	67.8231	-270.402	-26.3257	541.2131	13.6941	49.3272	2.0467	18.815	-7.1295	45.4202	-0.0592	0.0182	-0.0073	-0.0462	0.0165	0.9585
46.2471	58.155	743.0881	67.1947	-263.4493	-24.9798	525.777	14.2478	84.7968	2.2525	32.5099	-7.3556	78.4077	-0.0592	0.0182	-0.0073	-0.0462	0.0165	0.9585
46.2609	59.9369	719.4516	65.7094	-254.5441	-23.2394	506.6568	11.5509	129.8181	2.2024	49.9064	-6.0854	120.4298	-0.0592	0.0182	-0.0073	-0.0462	0.0165	0.9585
46.2746	61.1028	689.5526	63.2294	-243.5218	-21.0784	483.4697	5.2178	182.6931	1.7145	70.3392	-3.0194	169.9302	-0.0592	0.0182	-0.0073	-0.0462	0.0165	0.9585
46.2884	61.3844	652.6357	59.7054	-230.1488	-18.5606	455.746	-3.8341	239.8682	0.46216	92.4063	1.7746	223.4985	-0.0592	0.0182	-0.0073	-0.0462	0.0165	0.9585
46.3022	60.4631	608.0505	55.2056	-214.2103	-15.8507	423.0926	-14.1824	296.9708	-1.9265	114.3884	8.063	276.8131	-0.0592	0.0182	-0.0073	-0.0462	0.0165	0.9585
46.316	58.0365	555.7146	49.9101	-195.6657	-13.1717	385.5096	-24.468	351.5234	-5.3101	135.3092	15.1531	327.2987	-0.0592	0.0182	-0.0073	-0.0462	0.0165	0.9585
46.3298	53.9493	496.3523	44.1081	-174.7408	-10.7632	343.5176	-33.688	403.3253	-9.4342	155.0804	22.4083	374.587	-0.0592	0.0182	-0.0073	-0.0462	0.0165	0.9585
46.3436	48.2092	431.5351	38.0787	-151.9487	-8.7921	298.1732	-41.1955	453.2737	-13.915	174.0475	29.2245	419.3883	-0.0592	0.0182	-0.0073	-0.0462	0.0165	0.9585
46.3574	40.9664	363.583	32.0721	-128.0665	-7.3615	251.0169	-46.6253	502.2758	-18.5928	192.547	35.3277	462.4719	-0.0592	0.0182	-0.0073	-0.0462	0.0165	0.9585
46.3711	32.5619	295.4106	26.2951	-104.0924	-6.4804	203.9766	-49.9013	550.7249	-23.3844	210.6999	40.6286	504.1943	-0.0592	0.0182	-0.0073	-0.0462	0.0165	0.9585
46.3849	23.5684	230.2386	20.9505	-81.1461	-6.0808	159.1806	-51.2696	598.2217	-28.4537	228.3007	45.3849	544.2896	-0.0592	0.0182	-0.0073	-0.0462	0.0165	0.9585
46.3987	14.8093	171.1013	16.1822	-60.2971	-5.9656	118.6049	-51.1953	643.5223	-33.9537	244.8245	49.9213	581.7968	-0.0592	0.0182	-0.0073	-0.0462	0.0165	0.9585
46.4125	7.1641	120.2355	12.0864	-42.3437	-5.8894	83.6908	-50.2274	684.8781	-39.9494	259.5732	54.5133	615.3445	-0.0592	0.0182	-0.0073	-0.0462	0.0165	0.9585
46.4263	1.2768	78.7417	8.6645	-27.6894	-5.6298	55.1353	-48.8502	720.5599	-46.2579	271.8916	59.1859	643.5764	-0.0592	0.0182	-0.0073	-0.0462	0.0165	0.9585
46.4401	-2.5962	46.6994	5.8687	-16.3751	-5.0711	32.9889	-47.3417	749.2053	-52.4791	281.3068	63.6945	665.433	-0.0592	0.0182	-0.0073	-0.0462	0.0165	0.9585
46.4539	-4.5447	23.4796	3.6375	-8.1836	-4.2087	16.8506	-45.7772	769.8824	-58.1002	287.5438	67.6222	680.2035	-0.0592	0.0182	-0.0073	-0.0462	0.0165	0.9585
46.4676	-4.9734	8.0015	1.9435	-2.7316	-3.1771	6.0131	-44.0903	782.0457	-62.664	290.4964	70.5531	687.4676	-0.0592	0.0182	-0.0073	-0.0462	0.0165	0.9585
46.4814	-4.5099	-1.1524	0.778	0.48526	-2.1969	-0.45896	-42.1656	785.676	-65.8804	290.2601	72.208	687.2436	-0.0592	0.0182	-0.0073	-0.0462	0.0165	0.9585
46.4952	-3.6234	-5.6254	0.056991	2.0474	-1.3773	-3.6726	-39.9038	781.5133	-67.6091	287.2087	72.4519	680.188	-0.0592	0.0182	-0.0073	-0.0462	0.0165	0.9585
46.509	-2.6377	-6.9646	-0.32552	2.5021	-0.75819	-4.6757	-37.2564	771.2031	-67.8741	282.0351	71.3161	667.7181	-0.0592	0.0182	-0.0073	-0.0462	0.0165	0.9585
46.5228	-1.7373	-6.4389	-0.48356	2.2993	-0.32462	-4.3446	-34.2322	757.1215	-66.8204	275.6783	68.9546	651.8623	-0.0592	0.0182	-0.0073	-0.0462	0.0165	0.9585
46.5366	-1.0054	-5.003	-0.49859	1.7764	-0.051457	-3.3526	-30.9019	742.0081	-64.7166	269.1806	65.6478	634.9543	-0.0592	0.0182	-0.0073	-0.0462	0.0165	0.9585
46.5504	-0.47367	-3.2833	-0.44659	1.1568	0.10857	-2.1421	-27.3971	728.5328	-61.893	263.5256	61.7388	619.2678	-0.0592	0.0182	-0.0073	-0.0462	0.0165	0.9585
46.5641	-0.12135	-1.6514	-0.36265	0.57348	0.1853	-0.98245	-23.8859	718.8782	-58.7227	259.4852	57.6066	606.6641	-0.0592	0.0182	-0.0073	-0.0462	0.0165	0.9585
46.5779	0.079936	-0.29049	-0.28487	0.090673	0.21904	-0.0044687	-20.5395	714.4689	-55.5448	257.5282	53.5863	598.3776	-0.0592	0.0182	-0.0073	-0.0462	0.0165	0.9585
46.5917	0.17233	0.74162	-0.2141	-0.27288	0.21996	0.74592	-17.5037	715.8382	-52.6404	257.7825	49.9453	594.9093	-0.0592	0.0182	-0.0073	-0.0462	0.0165	0.9585
46.6055	0.19652	1.4616	-0.15964	-0.52626	0.20764	1.2728	-14.89	722.6435	-50.2213	260.0463	46.8729	596.0387	-0.0592	0.0182	-0.0073	-0.0462	0.0165	0.9585
46.6193	0.17768	1.9191	-0.11188	-0.68799	0.17853	1.6174	-12.7579	733.8004	-48.4306	263.8511	44.4783	600.9293	-0.0592	0.0182	-0.0073	-0.0462	0.0165	0.9585
46.6331	0.14418	2.1742	-0.081342	-0.78113	0.15156	1.8148	-11.0949	747.7258	-47.3352	268.5621	42.7887	608.3147	-0.0592	0.0182	-0.0073	-0.0462	0.0165	0.9585
46.6469	0.10528	2.2928	-0.052983	-0.8291	0.11792	1.9155	-9.8179	762.6342	-46.9222	273.4946	41.7475	616.7426	-0.0592	0.0182	-0.0073	-0.0462	0.0165	0.9585
46.6606	0.069559	2.3265	-0.030934	-0.85103	0.085053	1.9493	-8.8017	776.7752	-47.1222	278.0009	41.2461	624.7754	-0.0592	0.0182	-0.0073	-0.0462	0.0165	0.9585
46.6744	0.03812	2.3042	-0.0029637	-0.85603	0.043359	1.9317	-7.9339	788.6021	-47.8336	281.5291	41.1596	631.1463	-0.0592	0.0182	-0.0073	-0.0462	0.0165	0.9585
46.6882	0.0034746	2.2398	0.023199	-0.84468	-0.0011408	1.871	-7.1358	796.9426	-48.9377	283.6799	41.3712	634.8946	-0.0592	0.0182	-0.0073	-0.0462	0.0165	0.9585
46.702	-0.041044	2.1114	0.054511	-0.80399	-0.055937	1.7367	-6.3706	801.131	-50.2942	284.2497	41.77	635.4642	-0.0592	0.0182	-0.0073	-0.0462	0.0165	0.9585
46.7158	-0.10244	1.8678	0.088954	-0.71492	-0.12158	1.4854	-5.6301	801.0441	-51.7686	283.2379	42.2615	632.725	-0.0592	0.0182	-0.0073	-0.0462	0.0165	0.9585
